<svg width="36" height="40" viewBox="0 0 36 40" fill="none" xmlns="http://www.w3.org/2000/svg">
<path d="M18.0139 25.0012C15.2561 25.0012 13.0127 22.7578 13.0127 20C13.0127 17.2422 15.2561 14.9988 18.0139 14.9988C20.7717 14.9988 23.0151 17.2422 23.0151 20C23.0151 22.7578 20.7717 25.0012 18.0139 25.0012ZM18.0139 17.5375C16.6564 17.5375 15.5514 18.6425 15.5514 20C15.5514 21.3574 16.6564 22.4672 18.0139 22.4672C19.3714 22.4672 20.4811 21.3622 20.4811 20C20.4811 18.6377 19.3761 17.5375 18.0139 17.5375Z" fill="#43AFFF"/>
<path d="M4.55834 40C3.07703 40 1.69575 39.2855 0.866983 38.0852C0.0382146 36.885 -0.280909 35.2655 0.271603 33.9224L5.10132 21.1193C5.37758 20.4477 6.16348 20.1191 6.85412 20.3906C7.54476 20.6621 7.87818 21.4289 7.59716 22.1005L2.76744 34.9035C2.54357 35.4418 2.76744 36.1276 3.09609 36.6135C3.42474 37.0993 3.9582 37.3708 4.55358 37.3708C9.42616 37.3708 14.1511 36.0086 18.2235 33.427C18.8475 33.0317 19.681 33.2031 20.0858 33.8128C20.4907 34.4225 20.3145 35.2369 19.6905 35.6323C15.1847 38.4901 9.9501 40 4.55834 40V40Z" fill="url(#paint0_linear_34_769)"/>
<path d="M30.0643 40C26.9207 40 23.4199 38.7283 19.6571 36.2182C16.5039 34.1177 13.1984 31.1455 10.0976 27.6304C4.15337 20.8955 0 13.4604 0 9.54992C0 7.84952 0.690641 6.42537 1.89093 5.64423C3.31507 4.7202 5.2441 4.79165 7.31603 5.84428C7.97809 6.18245 8.25434 7.01599 7.93046 7.70663C7.60657 8.39727 6.80638 8.68305 6.13956 8.34487C4.94403 7.73521 3.91045 7.61137 3.30555 8.0067C2.75304 8.36393 2.67206 9.13077 2.67206 9.55469C2.67206 12.2839 6.18719 19.0903 12.0648 25.7538C15.0131 29.0974 18.1376 31.9076 21.1003 33.8795C24.4249 36.0991 27.4399 37.2232 30.0643 37.2232C30.9979 37.2232 31.8361 36.7612 32.3601 35.961C32.884 35.156 32.9888 34.1796 32.6459 33.2746L32.6363 33.2508L30.5597 27.7019C30.3025 26.9826 30.6501 26.1825 31.3456 25.911C32.0362 25.6395 32.8078 26.0062 33.065 26.7254L35.1417 32.2649C35.799 34.0081 35.5847 35.9753 34.5701 37.5232C33.5556 39.076 31.8695 40.0048 30.0643 40.0048V40Z" fill="#43AFFF"/>
<path d="M29.7835 18.1186L24.3774 3.57704C23.5439 1.4051 21.5434 0 19.2715 0H16.8042C14.5561 0 12.5556 1.38604 11.7173 3.53417L7.79731 13.9224C7.52105 14.6321 7.85446 15.437 8.54034 15.7276C8.70705 15.7942 8.87375 15.8276 9.04522 15.8276C9.57868 15.8276 10.0836 15.4989 10.2931 14.9607L14.2131 4.57252C14.6418 3.47702 15.6611 2.77209 16.8042 2.77209H19.2715C20.4289 2.77209 21.4482 3.48654 21.8721 4.59633L27.2019 18.9045C27.5687 20.1905 27.4639 21.5623 26.9066 22.7721L26.8256 22.9436C25.5063 25.6442 24.4441 27.1969 22.3055 29.2832C21.7673 29.8071 21.7435 30.6883 22.2531 31.2408C22.5199 31.5265 22.8723 31.6742 23.2296 31.6742C23.563 31.6742 23.8964 31.5504 24.1536 31.2932C26.5208 28.9879 27.7735 27.1731 29.231 24.1819L29.331 23.9724C30.1788 22.1434 30.3408 20.0667 29.7835 18.1234V18.1186Z" fill="#43AFFF"/>
<defs>
<linearGradient id="paint0_linear_34_769" x1="11.7553" y1="28.9736" x2="7.53524" y2="33.1936" gradientUnits="userSpaceOnUse">
<stop stop-color="#5B25F5"/>
<stop offset="0.05" stop-color="#5835F6"/>
<stop offset="0.18" stop-color="#515AF8"/>
<stop offset="0.32" stop-color="#4C79FB"/>
<stop offset="0.47" stop-color="#4890FC"/>
<stop offset="0.62" stop-color="#45A1FE"/>
<stop offset="0.79" stop-color="#43ABFE"/>
<stop offset="1" stop-color="#43AFFF"/>
</linearGradient>
</defs>
</svg>
