<svg width="133" height="40" viewBox="0 0 133 40" fill="none" xmlns="http://www.w3.org/2000/svg">
<g clip-path="url(#clip0_34_766)">
<path d="M18.0139 25.0012C15.2561 25.0012 13.0127 22.7578 13.0127 20C13.0127 17.2422 15.2561 14.9988 18.0139 14.9988C20.7717 14.9988 23.0151 17.2422 23.0151 20C23.0151 22.7578 20.7717 25.0012 18.0139 25.0012ZM18.0139 17.5375C16.6564 17.5375 15.5514 18.6425 15.5514 20C15.5514 21.3574 16.6564 22.4672 18.0139 22.4672C19.3714 22.4672 20.4811 21.3622 20.4811 20C20.4811 18.6377 19.3761 17.5375 18.0139 17.5375Z" fill="#43AFFF"/>
<path d="M4.55834 40C3.07703 40 1.69575 39.2855 0.866983 38.0852C0.0382146 36.885 -0.280909 35.2655 0.271603 33.9223L5.10132 21.1193C5.37758 20.4477 6.16348 20.1191 6.85412 20.3906C7.54476 20.6621 7.87818 21.4289 7.59716 22.1005L2.76744 34.9035C2.54357 35.4418 2.76744 36.1276 3.09609 36.6135C3.42474 37.0993 3.9582 37.3708 4.55358 37.3708C9.42616 37.3708 14.1511 36.0086 18.2235 33.427C18.8475 33.0317 19.681 33.2031 20.0858 33.8128C20.4907 34.4225 20.3145 35.2369 19.6905 35.6323C15.1847 38.4901 9.9501 40 4.55834 40Z" fill="url(#paint0_linear_34_766)"/>
<path d="M30.0643 40C26.9207 40 23.4199 38.7283 19.6571 36.2182C16.5039 34.1177 13.1984 31.1455 10.0976 27.6304C4.15337 20.8955 0 13.4604 0 9.54992C0 7.84952 0.690641 6.42537 1.89093 5.64423C3.31507 4.7202 5.2441 4.79165 7.31603 5.84428C7.97809 6.18245 8.25434 7.01599 7.93046 7.70663C7.60657 8.39727 6.80638 8.68305 6.13956 8.34487C4.94403 7.73521 3.91045 7.61137 3.30555 8.0067C2.75304 8.36393 2.67206 9.13077 2.67206 9.55469C2.67206 12.2839 6.18719 19.0903 12.0648 25.7538C15.0131 29.0974 18.1376 31.9076 21.1003 33.8795C24.4249 36.0991 27.4399 37.2232 30.0643 37.2232C30.9979 37.2232 31.8361 36.7612 32.3601 35.961C32.884 35.156 32.9888 34.1796 32.6459 33.2746L32.6363 33.2508L30.5597 27.7019C30.3025 26.9826 30.6502 26.1825 31.3456 25.911C32.0362 25.6395 32.8078 26.0062 33.065 26.7254L35.1417 32.2649C35.799 34.0081 35.5847 35.9753 34.5701 37.5232C33.5556 39.076 31.8695 40.0048 30.0643 40.0048V40Z" fill="#43AFFF"/>
<path d="M29.7835 18.1186L24.3774 3.57704C23.5439 1.4051 21.5434 0 19.2715 0H16.8042C14.5561 0 12.5556 1.38604 11.7173 3.53417L7.79731 13.9224C7.52105 14.6321 7.85446 15.437 8.54034 15.7276C8.70705 15.7942 8.87375 15.8276 9.04522 15.8276C9.57868 15.8276 10.0836 15.4989 10.2931 14.9607L14.2131 4.57252C14.6418 3.47702 15.6611 2.77209 16.8042 2.77209H19.2715C20.4289 2.77209 21.4482 3.48654 21.8721 4.59633L27.2019 18.9045C27.5687 20.1905 27.4639 21.5623 26.9066 22.7721L26.8256 22.9436C25.5063 25.6442 24.4441 27.1969 22.3055 29.2832C21.7673 29.8071 21.7435 30.6883 22.2531 31.2408C22.5199 31.5266 22.8723 31.6742 23.2296 31.6742C23.563 31.6742 23.8964 31.5504 24.1536 31.2932C26.5208 28.9879 27.7735 27.1731 29.231 24.1819L29.331 23.9724C30.1788 22.1434 30.3408 20.0667 29.7835 18.1234V18.1186Z" fill="#43AFFF"/>
<path d="M54.9893 8.78303C54.694 8.28291 54.1986 8.00189 53.6175 8.00189C53.0364 8.00189 52.5316 8.29244 52.241 8.79732L52.2315 8.81161L43.5151 23.9104H47.1922L53.6509 12.803L60.0667 23.9104H63.7247L54.9988 8.79732L54.9893 8.78303Z" fill="#24262B"/>
<path d="M105.683 8.00189H101.529L96.9185 13.4603L92.3365 8.00189H88.1831L95.342 16.5325V23.9104H98.5237V16.4801L105.683 8.00189Z" fill="#24262B"/>
<path d="M132.894 8.00189H129.712V23.9104H132.894V8.00189Z" fill="#24262B"/>
<path d="M80.5432 8.00189L75.9564 13.4937L75.9421 13.4794L71.3457 8.00189H67.1924L73.8654 15.9562L67.1924 23.9104H71.3457L75.9421 18.4282L80.5432 23.9104H84.6966L78.0188 15.9562V15.9514L84.6966 8.00189H80.5432Z" fill="#24262B"/>
<path d="M44.9202 28.7402H45.5823L46.9826 32.0362H46.2301L45.93 31.3027H44.5487L44.2486 32.0362H43.5151L44.9155 28.7402H44.9202ZM45.6776 30.6644L45.2441 29.6023L44.8107 30.6644H45.6823H45.6776Z" fill="#24262B"/>
<path d="M48.1401 31.2836H48.8975V32.0314H48.1401V31.2836Z" fill="#24262B"/>
<path d="M50.2788 28.764H50.998V32.0362H50.2788V28.764Z" fill="#24262B"/>
<path d="M52.3745 31.2836H53.1318V32.0314H52.3745V31.2836Z" fill="#24262B"/>
<path d="M56.9134 29.426H55.918V28.764H58.6281V29.426H57.6327V32.0314H56.9134V29.426Z" fill="#24262B"/>
<path d="M59.7476 28.764H61.2432C61.6575 28.764 61.9814 28.8831 62.1958 29.0974C62.3768 29.2784 62.4768 29.5356 62.4768 29.8452V29.8547C62.4768 30.3834 62.191 30.7121 61.7766 30.8692L62.5768 32.0362H61.7337L61.0336 30.9883H60.4668V32.0362H59.7476V28.764ZM61.1955 30.3548C61.548 30.3548 61.748 30.1691 61.748 29.8928V29.8833C61.748 29.5737 61.5337 29.4165 61.1812 29.4165H60.4668V30.3548H61.1955Z" fill="#24262B"/>
<path d="M64.9442 28.7402H65.6062L67.0066 32.0362H66.254L65.9539 31.3027H64.5726L64.2726 32.0362H63.5391L64.9394 28.7402H64.9442ZM65.7015 30.6644L65.268 29.6023L64.8346 30.6644H65.7015Z" fill="#24262B"/>
<path d="M68.1113 28.764H69.3878C70.4166 28.764 71.1263 29.4689 71.1263 30.3882V30.3977C71.1263 31.317 70.4166 32.0314 69.3878 32.0314H68.1113V28.7592V28.764ZM69.3878 31.3836C69.9784 31.3836 70.3738 30.9883 70.3738 30.4072V30.3977C70.3738 29.8166 69.9784 29.4118 69.3878 29.4118H68.8305V31.3836H69.3878Z" fill="#24262B"/>
<path d="M72.3794 28.764H74.8466V29.4022H73.0939V30.0643H74.6371V30.7025H73.0939V31.3884H74.8705V32.0267H72.3794V28.7545V28.764Z" fill="#24262B"/>
<path d="M77.6997 30.4073V30.3977C77.6997 29.4689 78.3999 28.7068 79.4049 28.7068C80.0241 28.7068 80.3908 28.9117 80.6957 29.2117L80.2384 29.7404C79.986 29.5118 79.7288 29.3737 79.4049 29.3737C78.8524 29.3737 78.457 29.8309 78.457 30.393V30.4025C78.457 30.9645 78.8428 31.4313 79.4049 31.4313C79.7764 31.4313 80.005 31.2837 80.2622 31.0503L80.7195 31.5123C80.3813 31.8695 80.0098 32.0981 79.3763 32.0981C78.4142 32.0981 77.6997 31.3551 77.6997 30.4168V30.4073Z" fill="#24262B"/>
<path d="M81.8765 28.764H83.3721C83.7864 28.764 84.1103 28.8831 84.3247 29.0974C84.5057 29.2784 84.6057 29.5356 84.6057 29.8452V29.8547C84.6057 30.3834 84.3199 30.7121 83.9055 30.8692L84.7057 32.0362H83.8627L83.1625 30.9883H82.5957V32.0362H81.8765V28.764ZM83.3244 30.3548C83.6769 30.3548 83.8769 30.1691 83.8769 29.8928V29.8833C83.8769 29.5737 83.6626 29.4165 83.3101 29.4165H82.5957V30.3548H83.3244Z" fill="#24262B"/>
<path d="M86.673 30.7406L85.4155 28.7592H86.2586L87.0397 30.0738L87.8352 28.7592H88.6544L87.397 30.7264V32.0314H86.6777V30.7406H86.673Z" fill="#24262B"/>
<path d="M89.7168 28.764H91.0552C91.8363 28.764 92.3079 29.226 92.3079 29.8928V29.9023C92.3079 30.6597 91.7173 31.0502 90.9838 31.0502H90.436V32.0314H89.7168V28.7592V28.764ZM91.0076 30.412C91.3648 30.412 91.5791 30.1977 91.5791 29.9166V29.9071C91.5791 29.5832 91.3553 29.4118 90.9981 29.4118H90.4408V30.412H91.0123H91.0076Z" fill="#24262B"/>
<path d="M94.2509 29.426H93.2554V28.764H95.9655V29.426H94.9701V32.0314H94.2509V29.426Z" fill="#24262B"/>
<path d="M96.8896 30.4073V30.3977C96.8896 29.4689 97.6232 28.7068 98.6329 28.7068C99.6427 28.7068 100.367 29.4594 100.367 30.3882V30.3977C100.367 31.3265 99.6332 32.0886 98.6234 32.0886C97.6136 32.0886 96.8896 31.336 96.8896 30.4073ZM99.6141 30.4073V30.3977C99.6141 29.8357 99.2045 29.3689 98.6234 29.3689C98.0423 29.3689 97.6422 29.8262 97.6422 30.3882V30.3977C97.6422 30.9598 98.0518 31.4265 98.6329 31.4265C99.214 31.4265 99.6141 30.9693 99.6141 30.4073Z" fill="#24262B"/>
<path d="M101.458 30.4073V30.3977C101.458 29.4689 102.158 28.7068 103.163 28.7068C103.782 28.7068 104.149 28.9117 104.453 29.2117L103.996 29.7404C103.744 29.5118 103.487 29.3737 103.163 29.3737C102.61 29.3737 102.215 29.8309 102.215 30.393V30.4025C102.215 30.9645 102.601 31.4313 103.163 31.4313C103.534 31.4313 103.763 31.2837 104.02 31.0503L104.477 31.5123C104.139 31.8695 103.768 32.0981 103.134 32.0981C102.172 32.0981 101.458 31.3551 101.458 30.4168V30.4073Z" fill="#24262B"/>
<path d="M105.573 30.6311V28.764H106.292V30.612C106.292 31.1455 106.559 31.4218 106.997 31.4218C107.435 31.4218 107.702 31.155 107.702 30.6359V28.764H108.421V30.612C108.421 31.6027 107.864 32.0886 106.987 32.0886C106.111 32.0886 105.573 31.598 105.573 30.6359V30.6311Z" fill="#24262B"/>
<path d="M109.812 28.764H111.308C111.722 28.764 112.046 28.8831 112.26 29.0974C112.441 29.2784 112.541 29.5356 112.541 29.8452V29.8547C112.541 30.3834 112.255 30.7121 111.841 30.8692L112.641 32.0362H111.798L111.098 30.9883H110.531V32.0362H109.812V28.764ZM111.26 30.3548C111.612 30.3548 111.812 30.1691 111.812 29.8928V29.8833C111.812 29.5737 111.598 29.4165 111.246 29.4165H110.531V30.3548H111.26Z" fill="#24262B"/>
<path d="M113.827 28.764H115.323C115.737 28.764 116.061 28.8831 116.275 29.0974C116.456 29.2784 116.556 29.5356 116.556 29.8452V29.8547C116.556 30.3834 116.271 30.7121 115.856 30.8692L116.656 32.0362H115.813L115.113 30.9883H114.546V32.0362H113.827V28.764ZM115.275 30.3548C115.628 30.3548 115.828 30.1691 115.828 29.8928V29.8833C115.828 29.5737 115.613 29.4165 115.261 29.4165H114.546V30.3548H115.275Z" fill="#24262B"/>
<path d="M117.842 28.764H120.31V29.4022H118.557V30.0643H120.1V30.7025H118.557V31.3884H120.333V32.0267H117.842V28.7545V28.764Z" fill="#24262B"/>
<path d="M121.629 28.764H122.291L123.825 30.7787V28.764H124.534V32.0362H123.925L122.343 29.9547V32.0362H121.634V28.764H121.629Z" fill="#24262B"/>
<path d="M125.801 30.4073V30.3977C125.801 29.4689 126.501 28.7068 127.506 28.7068C128.126 28.7068 128.492 28.9117 128.797 29.2117L128.34 29.7404C128.088 29.5118 127.83 29.3737 127.506 29.3737C126.954 29.3737 126.559 29.8309 126.559 30.393V30.4025C126.559 30.9645 126.944 31.4313 127.506 31.4313C127.878 31.4313 128.107 31.2837 128.364 31.0503L128.821 31.5123C128.483 31.8695 128.111 32.0981 127.478 32.0981C126.516 32.0981 125.801 31.3551 125.801 30.4168V30.4073Z" fill="#24262B"/>
<path d="M130.917 30.7406L129.66 28.7592H130.503L131.284 30.0738L132.079 28.7592H132.899L131.641 30.7264V32.0314H130.922V30.7406H130.917Z" fill="#24262B"/>
<path d="M112.784 8.00189C110.788 8.00189 109.174 9.62133 109.174 11.617V23.9057H112.356V17.5423H124.625V14.3605H112.356V14.2605C112.356 14.2605 112.356 13.5985 112.356 12.8459C112.356 11.9266 113.099 11.1836 114.013 11.1836H126.216V8.00189H112.784Z" fill="#24262B"/>
</g>
<defs>
<linearGradient id="paint0_linear_34_766" x1="11.7553" y1="28.9736" x2="7.53524" y2="33.1936" gradientUnits="userSpaceOnUse">
<stop stop-color="#5B25F5"/>
<stop offset="0.05" stop-color="#5835F6"/>
<stop offset="0.18" stop-color="#515AF8"/>
<stop offset="0.32" stop-color="#4C79FB"/>
<stop offset="0.47" stop-color="#4890FC"/>
<stop offset="0.62" stop-color="#45A1FE"/>
<stop offset="0.79" stop-color="#43ABFE"/>
<stop offset="1" stop-color="#43AFFF"/>
</linearGradient>
<clipPath id="clip0_34_766">
<rect width="132.894" height="40" fill="white"/>
</clipPath>
</defs>
</svg>
